<?xml version="1.0" standalone="no"?>
<!DOCTYPE svg PUBLIC "-//W3C//DTD SVG 20010904//EN"
 "http://www.w3.org/TR/2001/REC-SVG-20010904/DTD/svg10.dtd">
<svg version="1.0" xmlns="http://www.w3.org/2000/svg"
 width="723.000000pt" height="512.000000pt" viewBox="0 0 723.000000 512.000000"
 preserveAspectRatio="xMidYMid meet">

<g transform="translate(0.000000,512.000000) scale(0.100000,-0.100000)"
fill="#000000" stroke="none">
<path d="M3555 4800 l-320 -320 1663 0 1662 0 0 -1920 0 -1920 -2958 0 -2957
0 -320 -320 -320 -320 3598 0 3597 0 0 2560 0 2560 -1663 0 -1662 0 -320 -320z"/>
<path d="M3240 2565 l0 -705 135 0 135 0 0 275 0 275 263 2 262 3 3 133 3 132
-266 0 -265 0 0 160 0 160 305 0 305 0 0 135 0 135 -440 0 -440 0 0 -705z"/>
<path d="M4290 3135 l0 -135 165 0 165 0 0 -570 0 -570 140 0 140 0 0 570 0
570 170 0 170 0 0 135 0 135 -475 0 -475 0 0 -135z"/>
<path d="M1159 3238 c5 -13 40 -104 79 -203 38 -99 104 -270 147 -380 42 -110
96 -249 120 -310 177 -462 210 -544 216 -537 4 4 91 188 194 410 103 221 191
402 195 402 3 0 73 -168 155 -372 81 -205 155 -391 164 -413 l17 -39 41 114
c23 63 103 279 178 480 75 201 174 466 220 590 46 124 88 237 94 253 l11 27
-149 0 -148 0 -71 -232 c-39 -128 -93 -304 -119 -390 -26 -87 -51 -154 -55
-150 -3 4 -58 135 -121 292 -64 157 -133 328 -154 380 l-39 95 -137 3 -137 3
19 -48 c10 -26 35 -90 55 -140 l37 -93 -101 -252 c-56 -139 -105 -259 -110
-267 -9 -17 -14 -9 -33 54 -8 28 -66 196 -127 375 -62 179 -115 335 -117 348
-5 22 -7 22 -169 22 l-164 0 9 -22z"/>
</g>
</svg>
